<svg xmlns="http://www.w3.org/2000/svg" xmlns:xlink="http://www.w3.org/1999/xlink" width="500" zoomAndPan="magnify" viewBox="0 0 375 374.999991" height="500" preserveAspectRatio="xMidYMid meet" version="1.0"><defs><clipPath id="3078489e4a"><path d="M 101 46.578125 L 263 46.578125 L 263 300.777344 L 101 300.777344 Z M 101 46.578125 " clip-rule="nonzero"/></clipPath></defs><g clip-path="url(#3078489e4a)"><path fill="#33658a" d="M 184.058594 46.5625 C 183.328125 46.542969 182.570312 46.53125 181.8125 46.53125 C 181.0625 46.53125 180.3125 46.542969 179.5625 46.5625 C 120.070312 48.078125 83.308594 112.511719 110.96875 165.359375 L 132.230469 206.007812 L 181.8125 300.777344 L 199.253906 267.433594 C 192.128906 254.148438 184.976562 240.867188 177.839844 227.585938 C 166.933594 207.292969 156.027344 187.003906 145.121094 166.726562 C 139.582031 156.425781 134.300781 145.917969 132.855469 134.136719 C 129.367188 105.71875 153.535156 80.417969 181.617188 80.308594 C 209.15625 80.199219 231.5 102.539062 231.5 130.117188 C 231.5 157.628906 209.246094 179.925781 181.8125 179.925781 C 180.910156 179.925781 180.011719 179.902344 179.113281 179.855469 L 212.179688 242.75 L 231.410156 206.007812 L 252.65625 165.359375 C 280.320312 112.511719 243.558594 48.078125 184.058594 46.5625 " fill-opacity="1" fill-rule="nonzero"/></g></svg>