<svg
        version="1.1"
        xmlns="http://www.w3.org/2000/svg"
        viewBox="0 0 82.07934893184074 94.97114296023119"
        width="164.15869786368148"
        height="189.94228592046238"
>
        <rect
          x="0"
          y="0"
          width="82.07934893184074"
          height="94.97114296023119"
          fill="#91ADC2"
        ></rect>
        <g
          transform="translate(32.49744448091542 11.752028803047324) rotate(0 -11.24872224045771 36.60955707859193)"
          stroke="none"
        >
          <path
            fill="#33658A"
            d="M 7.92,2.12 Q 7.92,2.12 4.88,11.91 1.85,21.70 -1.74,31.88 -5.34,42.06 -8.34,50.76 -11.34,59.46 -12.40,64.11 -13.47,68.75 -13.80,70.76 -14.14,72.77 -14.71,73.90 -15.29,75.02 -16.20,75.91 -17.10,76.79 -18.24,77.34 -19.38,77.88 -20.64,78.04 -21.90,78.19 -23.13,77.94 -24.37,77.68 -25.47,77.04 -26.56,76.41 -27.39,75.45 -28.22,74.50 -28.71,73.33 -29.19,72.17 -29.28,70.90 -29.37,69.64 -29.04,68.42 -28.72,67.19 -28.03,66.14 -27.33,65.08 -26.34,64.30 -25.34,63.52 -24.15,63.10 -22.95,62.68 -21.69,62.66 -20.42,62.65 -19.22,63.03 -18.01,63.42 -17.00,64.17 -15.98,64.92 -15.26,65.96 -14.53,67.00 -14.18,68.21 -13.82,69.43 -13.87,70.69 -13.92,71.95 -14.37,73.14 -14.83,74.32 -15.63,75.29 -16.44,76.27 -17.51,76.93 -18.59,77.60 -19.82,77.89 -21.05,78.18 -22.31,78.06 -23.57,77.94 -24.72,77.42 -25.88,76.91 -26.81,76.05 -27.74,75.20 -28.35,74.09 -28.96,72.98 -29.18,71.73 -29.40,70.49 -29.21,69.23 -29.02,67.98 -29.02,67.98 -29.02,67.99 -28.13,66.16 -27.23,64.33 -25.39,59.95 -23.55,55.57 -20.95,46.71 -18.35,37.85 -15.41,27.85 -12.47,17.85 -10.19,7.86 -7.92,-2.12 -7.55,-3.04 -7.18,-3.96 -6.60,-4.76 -6.02,-5.56 -5.27,-6.20 -4.51,-6.84 -3.63,-7.28 -2.74,-7.72 -1.78,-7.94 -0.81,-8.16 0.16,-8.14 1.15,-8.12 2.11,-7.86 3.06,-7.60 3.93,-7.13 4.79,-6.65 5.52,-5.98 6.25,-5.31 6.79,-4.48 7.34,-3.66 7.67,-2.72 8.00,-1.79 8.10,-0.81 8.20,0.17 8.06,1.14 7.92,2.12 7.92,2.12 L 7.92,2.12 Z"
          ></path>
        </g>
        <g
          transform="translate(49.398856665532094 10.915238926964776) rotate(0 0.7365494221764948 15.53727035537895)"
          stroke="none"
        >
          <path
            fill="#33658A"
            d="M -0.00,-10.58 Q -0.00,-10.58 5.60,-10.54 11.21,-10.49 16.60,-8.78 22.00,-7.08 25.70,-2.46 29.41,2.14 30.78,6.42 32.14,10.70 31.89,18.05 31.65,25.39 29.11,29.08 26.57,32.76 19.66,36.55 12.76,40.34 6.55,42.12 0.33,43.90 -5.24,44.32 -10.82,44.75 -18.45,43.94 -26.08,43.13 -27.84,41.98 -29.60,40.83 -30.91,39.18 -32.21,37.53 -32.92,35.55 -33.62,33.57 -33.66,31.46 -33.70,29.36 -33.06,27.36 -32.43,25.35 -31.19,23.65 -29.94,21.96 -28.22,20.74 -26.50,19.53 -24.49,18.93 -22.47,18.34 -20.37,18.41 -18.27,18.49 -16.30,19.23 -14.33,19.97 -12.71,21.31 -11.08,22.64 -9.96,24.42 -8.85,26.20 -8.36,28.25 -7.87,30.30 -8.06,32.39 -8.25,34.48 -9.10,36.41 -9.95,38.33 -11.36,39.89 -12.78,41.44 -14.62,42.46 -16.46,43.48 -18.53,43.85 -20.60,44.23 -22.68,43.93 -24.76,43.62 -26.64,42.67 -28.52,41.72 -29.99,40.22 -31.46,38.72 -32.38,36.83 -33.30,34.93 -33.56,32.85 -33.83,30.76 -33.41,28.70 -33.00,26.64 -31.94,24.81 -30.89,22.99 -29.31,21.60 -27.73,20.21 -25.79,19.40 -23.85,18.59 -21.76,18.44 -19.66,18.28 -17.62,18.81 -15.59,19.34 -15.59,19.34 -15.59,19.34 -16.07,19.16 -16.54,18.98 -11.77,19.01 -7.00,19.04 -2.06,18.43 2.87,17.82 7.04,14.15 11.21,10.48 5.61,10.53 0.00,10.58 -1.26,10.43 -2.52,10.27 -3.72,9.82 -4.91,9.37 -5.96,8.64 -7.01,7.92 -7.86,6.97 -8.70,6.01 -9.30,4.88 -9.89,3.75 -10.20,2.51 -10.50,1.27 -10.50,0.00 -10.50,-1.27 -10.20,-2.51 -9.89,-3.74 -9.30,-4.87 -8.71,-6.00 -7.86,-6.96 -7.02,-7.91 -5.97,-8.64 -4.92,-9.36 -3.72,-9.82 -2.53,-10.27 -1.27,-10.42 -0.00,-10.58 -0.00,-10.58 L -0.00,-10.58 Z"
          ></path>
        </g>
      </svg>